<?xml version="1.0" encoding="iso-8859-1"?>
<!-- Uploaded to: SVG Repo, www.svgrepo.com, Generator: SVG Repo Mixer Tools -->
<svg fill="#000000" height="800px" width="800px" version="1.1" id="Layer_1" xmlns="http://www.w3.org/2000/svg" xmlns:xlink="http://www.w3.org/1999/xlink" 
	 viewBox="0 0 511.999 511.999" xml:space="preserve">
<g>
	<g>
		<path d="M391.235,269.055c-19.64,0-35.617,15.978-35.617,35.617c0,19.64,15.978,35.617,35.617,35.617
			c19.64,0,35.617-15.978,35.617-35.617C426.852,285.033,410.874,269.055,391.235,269.055z"/>
	</g>
</g>
<g>
	<g>
		<path d="M120.765,269.055c-19.64,0-35.617,15.978-35.617,35.617c0,19.64,15.978,35.617,35.617,35.617
			c19.64,0,35.617-15.978,35.617-35.617C156.383,285.033,140.405,269.055,120.765,269.055z"/>
	</g>
</g>
<g>
	<g>
		<path d="M494.934,110.191h-26.602V94.052c0-4.61-3.738-8.348-8.348-8.348h-31.165c-4.61,0-8.348,3.738-8.348,8.348v16.139h-27.826
			V94.052c0-4.61-3.738-8.348-8.348-8.348h-31.165c-4.61,0-8.348,3.738-8.348,8.348v16.139H17.066
			C7.641,110.191,0,117.832,0,127.257v281.971c0,9.426,7.641,17.067,17.066,17.067h477.866c9.425,0,17.066-7.641,17.066-17.066
			V127.257C512,117.832,504.359,110.191,494.934,110.191z M416.835,149.147c9.22,0,16.696,7.475,16.696,16.696
			c0,9.22-7.475,16.696-16.696,16.696s-16.696-7.475-16.696-16.696C400.139,156.622,407.614,149.147,416.835,149.147z
			 M365.635,149.147c9.22,0,16.696,7.475,16.696,16.696c0,9.22-7.475,16.696-16.696,16.696s-16.696-7.475-16.696-16.696
			C348.939,156.622,356.414,149.147,365.635,149.147z M146.365,149.147c9.22,0,16.696,7.475,16.696,16.696
			c0,9.22-7.475,16.696-16.696,16.696s-16.696-7.475-16.696-16.696C129.67,156.622,137.145,149.147,146.365,149.147z
			 M95.165,149.147c9.22,0,16.696,7.475,16.696,16.696c0,9.22-7.475,16.696-16.696,16.696s-16.696-7.475-16.696-16.696
			C78.47,156.622,85.945,149.147,95.165,149.147z M120.765,373.682c-38.052,0-69.009-30.957-69.009-69.009
			s30.957-69.009,69.009-69.009c38.052,0,69.009,30.957,69.009,69.009C189.774,342.724,158.817,373.682,120.765,373.682z
			 M230.4,390.678c-9.22,0-16.696-7.475-16.696-16.696s7.475-16.696,16.696-16.696c9.22,0,16.696,7.475,16.696,16.696
			S239.62,390.678,230.4,390.678z M230.4,342.817c-9.22,0-16.696-7.475-16.696-16.696c0-9.22,7.475-16.696,16.696-16.696
			c9.22,0,16.696,7.475,16.696,16.696C247.096,335.342,239.62,342.817,230.4,342.817z M230.4,293.843
			c-9.22,0-16.696-7.475-16.696-16.696s7.475-16.696,16.696-16.696c9.22,0,16.696,7.475,16.696,16.696S239.62,293.843,230.4,293.843
			z M281.6,390.678c-9.22,0-16.696-7.475-16.696-16.696s7.475-16.696,16.696-16.696c9.22,0,16.696,7.475,16.696,16.696
			S290.82,390.678,281.6,390.678z M281.6,342.817c-9.22,0-16.696-7.475-16.696-16.696c0-9.22,7.475-16.696,16.696-16.696
			c9.22,0,16.696,7.475,16.696,16.696C298.296,335.342,290.82,342.817,281.6,342.817z M281.6,293.843
			c-9.22,0-16.696-7.475-16.696-16.696s7.475-16.696,16.696-16.696c9.22,0,16.696,7.475,16.696,16.696S290.82,293.843,281.6,293.843
			z M297.739,232.626h-83.478c-9.22,0-16.696-7.475-16.696-16.696c0-9.22,7.475-16.696,16.696-16.696h83.478
			c9.22,0,16.696,7.475,16.696,16.696C314.435,225.15,306.96,232.626,297.739,232.626z M297.739,174.747h-83.478
			c-9.22,0-16.696-7.475-16.696-16.696s7.475-16.696,16.696-16.696h83.478c9.22,0,16.696,7.475,16.696,16.696
			S306.96,174.747,297.739,174.747z M391.235,373.682c-38.052,0-69.009-30.957-69.009-69.009s30.957-69.009,69.009-69.009
			s69.009,30.957,69.009,69.009C460.243,342.724,429.286,373.682,391.235,373.682z"/>
	</g>
</g>
</svg>